<svg width="172" height="187" viewBox="0 0 172 187" fill="none" xmlns="http://www.w3.org/2000/svg">
<path opacity="0.4" fill-rule="evenodd" clip-rule="evenodd" d="M22.0611 122.947C-5.5229 83.0935 -7.84872 36.2864 18.53 13.1371C39.8845 -5.60299 74.1688 -3.67775 105.518 14.991C81.7661 3.94517 56.4493 4.75214 39.6251 19.5166C23.7253 33.4699 19.2008 56.5627 25.3927 80.147L22.0611 122.947ZM52.9257 155.428C87.3087 181.762 128.283 187.158 152.554 165.859C176.451 144.888 176.791 104.502 156.137 67.4593C168.2 95.3033 165.349 124.726 146.483 141.282C127.483 157.956 97.6513 156.829 71.4748 140.931L52.9257 155.428Z" fill="#E43E2B"/>
<path d="M94.5275 76.7416C120.517 73.3219 142.044 90.9177 149.657 101.944C120.517 101.943 99.253 111.394 97.6779 112.182C96.1028 112.969 53.5746 131.871 6.32074 187C26.7975 139.746 64.6004 80.6793 94.5275 76.7416Z" fill="#5769FF"/>
<path d="M140.994 31.2679C131.543 34.4182 104.766 23.3717 92.9526 17.0712C125.243 -1.04264 141.222 4.76132 144.932 6.83296C152.02 10.7914 152.807 27.3301 140.994 31.2679Z" fill="#E43E2B"/>
<path d="M136.905 42.2545C149.837 42.764 157.279 33.7325 159.383 29.1531C159.078 39.7111 162.273 59.987 132.539 65.3302C102.804 70.6734 88.5273 60.5309 65.0463 68.2919C46.2615 74.5007 35.4681 100.551 32.4195 112.8C32.8329 104.705 32.0236 100.702 33.8955 76.3895C35.7674 52.0771 52.9821 38.5336 68.2329 35.8451C83.4837 33.1567 120.74 41.6178 136.905 42.2545Z" fill="#514B5A"/>
</svg>
